<svg id="图层_1" data-name="图层 1" xmlns="http://www.w3.org/2000/svg" viewBox="0 0 498.88 534.35" fill="#6b6b6d"><path d="M372.38,242.28c27.06-19.63,45.33-40.9,54.3-63.23,7.32-18.22,8-36.69,2-53.41C418.21,96.7,388.88,77.1,358.91,79c-18.86,1.22-64.83,13.63-84.37,102.29a192.85,192.85,0,0,1-12.17,37.42,133.39,133.39,0,0,0,82.18,46.82A248.47,248.47,0,0,1,372.38,242.28Z"/><path d="M244.91,191.58c1.61-5.08,3-10.35,4.24-15.85,8.58-38.93,23.18-69.48,43.38-90.8,18.27-19.27,40.65-30.28,64.7-31.84a94.7,94.7,0,0,1,58.33,16,97.8,97.8,0,0,1,37.55,47.74c8.23,22.81,7.43,47.68-2.3,71.92-10.83,26.94-32.08,52-63.16,74.59-1.14.83-2.26,1.66-3.37,2.49a133.51,133.51,0,1,0-139.37-74.24Z"/><path d="M83.07,237c17.78,26.27,50.55,39.17,83.48,32.87,18.48-3.54,35.51-13,49.26-27.26,12.67-13.16,22.32-30,28.83-50.19a133.69,133.69,0,0,0-168-45.95C65,181.6,67,213.19,83.07,237Z"/><path d="M260.17,223.45a143.8,143.8,0,0,1-25.62,37.19c-17.5,18.19-39.32,30.21-63.11,34.77-43.16,8.25-86.29-9-109.9-43.84-13.86-20.49-20.08-45.87-18-73.4Q44,173,44.74,167.72a133.54,133.54,0,1,0,215.43,55.73Z"/><path d="M474.11,461.38c-36.93,6.91-72.5,3.94-102.86-8.59a139.94,139.94,0,0,1-16.43-8.06c-30.56-17.65-50.37-45.36-54.09-76.71-2.47-20.77.65-58.1,40-98.58A133.6,133.6,0,1,0,485.59,458.9C481.77,459.81,478,460.66,474.11,461.38Z"/><path d="M326.54,365c3.23,27.17,23.65,51,54.62,63.8,25.71,10.6,56.2,13.05,88.17,7.07A212.14,212.14,0,0,0,495.88,429,133.68,133.68,0,0,0,381.27,268.13C342.1,298.48,322.71,332.65,326.54,365Z"/></svg>