<svg id="图层_1" data-name="图层 1" xmlns="http://www.w3.org/2000/svg" xmlns:xlink="http://www.w3.org/1999/xlink" viewBox="0 0 498.88 534.35"><defs><style>.cls-1{fill:url(#未命名的渐变_26);}.cls-2{fill:url(#未命名的渐变_27);}.cls-3{fill:url(#未命名的渐变_23);}.cls-4{fill:url(#未命名的渐变_24);}.cls-5{fill:url(#未命名的渐变_22);}.cls-6{fill:url(#未命名的渐变_25);}</style><linearGradient id="未命名的渐变_26" x1="153.66" y1="-111.27" x2="752.79" y2="767.47" gradientUnits="userSpaceOnUse"><stop offset="0" stop-color="#9F54BA"/><stop offset="0.77" stop-color="#175989"/></linearGradient><linearGradient id="未命名的渐变_27" x1="184.82" y1="-132.51" x2="762.2" y2="714.31" gradientUnits="userSpaceOnUse"><stop offset="0" stop-color="#9F54BA"/><stop offset="0.8" stop-color="#175989"/></linearGradient><linearGradient id="未命名的渐变_23" x1="9.07" y1="-12.69" x2="646.44" y2="922.12" gradientUnits="userSpaceOnUse"><stop offset="0" stop-color="#9F54BA"/><stop offset="0.7" stop-color="#175989"/></linearGradient><linearGradient id="未命名的渐变_24" x1="-37.67" y1="19.19" x2="612.42" y2="972.66" gradientUnits="userSpaceOnUse"><stop offset="0" stop-color="#9F54BA"/><stop offset="0.68" stop-color="#175989"/></linearGradient><linearGradient id="未命名的渐变_22" x1="32.31" y1="-28.53" x2="735.23" y2="1002.43" gradientUnits="userSpaceOnUse"><stop offset="0" stop-color="#9F54BA"/><stop offset="0.64" stop-color="#175989"/></linearGradient><linearGradient id="未命名的渐变_25" x1="107.1" y1="-79.53" x2="657.24" y2="727.35" gradientUnits="userSpaceOnUse"><stop offset="0" stop-color="#9F54BA"/><stop offset="0.83" stop-color="#175989"/></linearGradient></defs><path class="cls-1" d="M372.84,242.78c27-19.61,45.29-40.87,54.26-63.18,7.31-18.21,8-36.67,2-53.38-10.43-28.91-39.74-48.49-69.69-46.56-18.85,1.22-64.79,13.62-84.31,102.22a193.67,193.67,0,0,1-12.16,37.39A133.32,133.32,0,0,0,345,266.05,249.18,249.18,0,0,1,372.84,242.78Z"/><path class="cls-2" d="M245.47,192.12q2.4-7.62,4.23-15.84c8.57-38.9,23.16-69.43,43.35-90.73,18.26-19.26,40.61-30.26,64.65-31.81a94.6,94.6,0,0,1,58.28,16,97.81,97.81,0,0,1,37.53,47.7c8.22,22.8,7.42,47.65-2.31,71.87-10.81,26.92-32,52-63.1,74.53-1.14.83-2.26,1.66-3.37,2.5a133.42,133.42,0,1,0-139.26-74.19Z"/><path class="cls-3" d="M83.75,237.5c17.76,26.25,50.51,39.14,83.41,32.85,18.47-3.53,35.49-13,49.23-27.24,12.65-13.15,22.3-30,28.8-50.16A133.59,133.59,0,0,0,77.3,147C65.69,182.15,67.65,213.71,83.75,237.5Z"/><path class="cls-4" d="M260.71,224a143.65,143.65,0,0,1-25.6,37.16c-17.48,18.18-39.29,30.2-63.06,34.74-43.13,8.25-86.23-8.94-109.82-43.8-13.85-20.47-20.07-45.83-18-73.34.26-3.46.67-6.94,1.18-10.45A133.45,133.45,0,1,0,260.71,224Z"/><path class="cls-5" d="M474.5,461.72c-36.91,6.9-72.45,3.93-102.8-8.59a137.32,137.32,0,0,1-16.41-8.06c-30.53-17.63-50.33-45.32-54.05-76.64-2.47-20.76.65-58.06,39.93-98.51A133.5,133.5,0,1,0,486,459.23C482.15,460.15,478.33,461,474.5,461.72Z"/><path class="cls-6" d="M327,365.36c3.22,27.15,23.63,51,54.57,63.76,25.69,10.59,56.16,13,88.11,7.06a210.37,210.37,0,0,0,26.52-6.82A133.57,133.57,0,0,0,381.72,268.61C342.58,298.94,323.2,333.09,327,365.36Z"/></svg>